# xmcd CD database file
#
# Track frame offsets:
#	150
#	9338
#	21614
#	34936
#	46250
#	58836
#	72179
#	83789
#	98453
#	112413
#	124792
#	137217
#	150398
#	163276
#	175550
#	188903
#	200836
#	214597
#	226528
#	238222
#	252331
#	266494
#	280690
#	293190
#	306749
#
# Disc length: 4249 seconds
#
# Revision: 0
# Processed by: cddbd v1.5.2PL0 Copyright (c) Steve Scherf et al.
# Submitted via: CDex 1.40Beta9
#
DISCID=6f109719
DTITLE=Various Artist - an introduction to the blues
DYEAR=2006
DGENRE=Blues
TTITLE0=Ain't No Tellin' - Mississippi John Hunt
TTITLE1=Mean Mistreater Blues - Tampa Red
TTITLE2=Dust My Broom - Robert Johnson
TTITLE3=Harmonica And Washboard Breakdown - Sonny Terry
TTITLE4=Fixin' to Die Blues - Bukka White
TTITLE5=Beer Drinkin' Woman - Memphis Slim
TTITLE6=Dealing With The Devil - Sonny Terry and Brownie McGhee
TTITLE7=The House Of The Rising Sun - Leadbelly
TTITLE8=Someday Baby - Lonnie Johnson
TTITLE9=Gin Mill Sal - Champion Jack Dupree
TTITLE10=So Glad You're Mine - Arthur "Big Boy" Crudup with "Jump" Jackson
TTITLE11=That's All Right Mama - Arthur "Big Boy" Crudup 
TTITLE12=Wild Cow Moan - Big Joe Williams and Sonny Boy Williamson
TTITLE13=That's My Desire - Hadda Brookes Trio
TTITLE14=Tain't Nobody's Business If I Do - Jimmy Withspoon with Jay Mc Shay and His Orchestra
TTITLE15=Bobby Sox Blues - T-Bone Walker with Jack McVea's All Stars
TTITLE16=If The Sea Was Whiskey - Willie Dixon
TTITLE17=My Fault - Brownie McGhee
TTITLE18=Pretty Mama Blues =Ivory Joe Hunter
TTITLE19=Boogie Chillen' - John Lee Hooker
TTITLE20=Long John Blues - Dinah Washington with Cootie Wiilliams and His Orchestra
TTITLE21=God Bless The Child - Billie Holiday with Gordon Jenkins and His Orchestra
TTITLE22=Sad Journey Blues - Floyd Dixon
TTITLE23=Mistrustin' Blues - Jonny Otis and His Orchestra featuring Little Esther, Mel Walker and The Robins
TTITLE24=Shotgun Blues - Lightnin' Hopkins
EXTD=YEAR: 2006 ID3G: 0
EXTT0=
EXTT1=
EXTT2=
EXTT3=
EXTT4=
EXTT5=
EXTT6=
EXTT7=
EXTT8=
EXTT9=
EXTT10=
EXTT11=
EXTT12=
EXTT13=
EXTT14=
EXTT15=
EXTT16=
EXTT17=
EXTT18=
EXTT19=
EXTT20=
EXTT21=
EXTT22=
EXTT23=
EXTT24=
PLAYORDER=
